<mxfile host="Electron" agent="Mozilla/5.0 (Macintosh; Intel Mac OS X 10_15_7) AppleWebKit/537.36 (KHTML, like Gecko) draw.io/26.0.15 Chrome/132.0.6834.196 Electron/34.2.0 Safari/537.36" version="26.0.15">
  <diagram name="Page-1" id="BDc5dqVFZaIknSXxi169">
    <mxGraphModel dx="1340" dy="763" grid="1" gridSize="10" guides="1" tooltips="1" connect="1" arrows="1" fold="1" page="1" pageScale="1" pageWidth="1100" pageHeight="850" math="0" shadow="0">
      <root>
        <mxCell id="0" />
        <mxCell id="1" parent="0" />
        <mxCell id="3-aP_LXsC1HE_XLdOk5Z-10" style="edgeStyle=orthogonalEdgeStyle;rounded=0;orthogonalLoop=1;jettySize=auto;html=1;exitX=1;exitY=0.5;exitDx=0;exitDy=0;exitPerimeter=0;" edge="1" parent="1" source="3-aP_LXsC1HE_XLdOk5Z-1" target="3-aP_LXsC1HE_XLdOk5Z-3">
          <mxGeometry relative="1" as="geometry" />
        </mxCell>
        <mxCell id="3-aP_LXsC1HE_XLdOk5Z-1" value="" style="rhombus;whiteSpace=wrap;html=1;rounded=1;fontStyle=1;glass=0;sketch=0;fontSize=12;points=[[0,0.5,0,0,0],[0.5,0,0,0,0],[0.5,1,0,0,0],[1,0.5,0,0,0]];shadow=1;fontFamily=Helvetica;fontColor=default;" vertex="1" parent="1">
          <mxGeometry x="120" y="140" width="40" height="40" as="geometry" />
        </mxCell>
        <mxCell id="3-aP_LXsC1HE_XLdOk5Z-2" value="Echo" style="rounded=1;whiteSpace=wrap;html=1;container=1;recursiveResize=0;verticalAlign=top;arcSize=6;fontStyle=1;autosize=0;points=[];absoluteArcSize=1;shadow=1;strokeColor=#6c8ebf;fillColor=#dae8fc;fontFamily=Helvetica;fontSize=11;gradientColor=#0050EF;fontColor=default;" vertex="1" parent="1">
          <mxGeometry x="240" y="120" width="138" height="100" as="geometry">
            <mxRectangle x="-98" y="-1230" width="99" height="26" as="alternateBounds" />
          </mxGeometry>
        </mxCell>
        <mxCell id="3-aP_LXsC1HE_XLdOk5Z-3" value="" style="rounded=1;whiteSpace=wrap;html=1;sketch=0;points=[[0,0.5,0,0,0],[1,0.5,0,0,0]];arcSize=50;fontFamily=Helvetica;fontSize=11;fontColor=default;" vertex="1" parent="3-aP_LXsC1HE_XLdOk5Z-2">
          <mxGeometry x="-16.75" y="27.5" width="36.75" height="25" as="geometry" />
        </mxCell>
        <mxCell id="3-aP_LXsC1HE_XLdOk5Z-4" value="" style="rounded=1;whiteSpace=wrap;html=1;sketch=0;points=[[0,0.5,0,0,0],[1,0.5,0,0,0]];fillColor=#1ba1e2;fontColor=#ffffff;strokeColor=#006EAF;arcSize=50;fontFamily=Helvetica;fontSize=11;" vertex="1" parent="3-aP_LXsC1HE_XLdOk5Z-2">
          <mxGeometry x="120" y="27.5" width="36" height="25" as="geometry" />
        </mxCell>
        <mxCell id="3-aP_LXsC1HE_XLdOk5Z-5" value="✗" style="rounded=1;whiteSpace=wrap;html=1;sketch=0;points=[[0,0.5,0,0,0],[1,0.5,0,0,0]];fillColor=#1ba1e2;fontColor=#ffffff;strokeColor=#006EAF;arcSize=50;fontFamily=Helvetica;fontSize=11;textOpacity=30;" vertex="1" parent="3-aP_LXsC1HE_XLdOk5Z-2">
          <mxGeometry x="120" y="60" width="36" height="25" as="geometry" />
        </mxCell>
        <mxCell id="3-aP_LXsC1HE_XLdOk5Z-6" value="" style="rhombus;whiteSpace=wrap;html=1;rounded=1;fontStyle=1;glass=0;sketch=0;fontSize=12;points=[[0,0.5,0,0,0],[0.5,0,0,0,0],[0.5,1,0,0,0],[1,0.5,0,0,0]];shadow=1;fillColor=#0050ef;fontColor=#ffffff;strokeColor=#001DBC;fontFamily=Helvetica;" vertex="1" parent="1">
          <mxGeometry x="440" y="140" width="40" height="40" as="geometry" />
        </mxCell>
        <mxCell id="3-aP_LXsC1HE_XLdOk5Z-7" value="✗" style="rhombus;whiteSpace=wrap;html=1;rounded=1;fillColor=#0050ef;fontColor=#ffffff;strokeColor=#001DBC;fontStyle=1;glass=0;sketch=0;fontSize=12;points=[[0,0.5,0,0,0],[0.5,0,0,0,0],[0.5,1,0,0,0],[1,0.5,0,0,0]];shadow=1;opacity=30;textOpacity=30;" vertex="1" parent="1">
          <mxGeometry x="440" y="200" width="40" height="40" as="geometry" />
        </mxCell>
        <mxCell id="3-aP_LXsC1HE_XLdOk5Z-8" style="edgeStyle=orthogonalEdgeStyle;rounded=0;orthogonalLoop=1;jettySize=auto;html=1;exitX=1;exitY=0.5;exitDx=0;exitDy=0;exitPerimeter=0;" edge="1" parent="1" source="3-aP_LXsC1HE_XLdOk5Z-4" target="3-aP_LXsC1HE_XLdOk5Z-6">
          <mxGeometry relative="1" as="geometry" />
        </mxCell>
        <mxCell id="3-aP_LXsC1HE_XLdOk5Z-9" style="edgeStyle=orthogonalEdgeStyle;rounded=0;orthogonalLoop=1;jettySize=auto;html=1;exitX=1;exitY=0.5;exitDx=0;exitDy=0;exitPerimeter=0;entryX=0;entryY=0.5;entryDx=0;entryDy=0;entryPerimeter=0;" edge="1" parent="1" source="3-aP_LXsC1HE_XLdOk5Z-5" target="3-aP_LXsC1HE_XLdOk5Z-7">
          <mxGeometry relative="1" as="geometry" />
        </mxCell>
      </root>
    </mxGraphModel>
  </diagram>
</mxfile>
